PathFileType	4	(X/Y/Z)	C:/Users/opensim2020/Desktop/walking_exp_matlab/subject01_walking15_straight_02.trc																																																																																																																															
DataRate	CameraRate	NumFrames	NumMarkers	Units	OrigDataRate	OrigDataStartFrame	OrigNumFrames																																																																																																																											
100	100	7	43	mm	100	1178	135																																																																																																																											
Frame#	Time	LFHD			RFHD			LBHD			RBHD			C7			T10			CLAV			STRN			RBAK			LSHO			LUPA			LELB			LFRM			LWRA			LWRB			LFIN			RSHO			RUPA			RELB			RFRM			RWRA			RWRB			RFIN			LASI			RASI			LPSI			RPSI			LTHI			LKNE			LTIB			LANK			LHEE			LTOE			RTHI			RKNE			RTIB			RANK			RHEE			RTOE			*39			*40			*41			*42		
		X1	Y1	Z1	X2	Y2	Z2	X3	Y3	Z3	X4	Y4	Z4	X5	Y5	Z5	X6	Y6	Z6	X7	Y7	Z7	X8	Y8	Z8	X9	Y9	Z9	X10	Y10	Z10	X11	Y11	Z11	X12	Y12	Z12	X13	Y13	Z13	X14	Y14	Z14	X15	Y15	Z15	X16	Y16	Z16	X17	Y17	Z17	X18	Y18	Z18	X19	Y19	Z19	X20	Y20	Z20	X21	Y21	Z21	X22	Y22	Z22	X23	Y23	Z23	X24	Y24	Z24	X25	Y25	Z25	X26	Y26	Z26	X27	Y27	Z27	X28	Y28	Z28	X29	Y29	Z29	X30	Y30	Z30	X31	Y31	Z31	X32	Y32	Z32	X33	Y33	Z33	X34	Y34	Z34	X35	Y35	Z35	X36	Y36	Z36	X37	Y37	Z37	X38	Y38	Z38	X39	Y39	Z39	X40	Y40	Z40	X41	Y41	Z41	X42	Y42	Z42	X43	Y43	Z43
																																																																																																																																		
34	0.33	-531.43713	1658.59802	1030.05872	-491.67838	1669.23474	1137.35901	-636.12073	1604.10242	1067.70203	-597.77148	1614.2887	1181.78857	-650.91748	1420.8385	1096.85669	-696.388	1127.25977	1106.50854	-504.91788	1352.70068	1101.12622	-467.96423	1195.55371	1097.75293	-712.82483	1231.20459	1172.63672	-561.40277	1387.19556	940.13489	-569.18268	1207.9729	848.72888	-554.55756	1054.5907	834.32336	-450.38373	997.10614	823.59991	-318.08661	975.55774	854.29315	-349.43689	930.05847	832.26868	-266.22131	918.7818	826.70868	-572.31702	1385.94983	1249.9563	-674.79242	1204.32996	1345.18713	-696.23389	1084.8136	1355.42126	-714.96875	971.26678	1394.87769	-688.66364	829.01477	1386.8147	-727.77008	851.43701	1424.66919	-732.39441	761.09412	1426.01587	-528.81219	917.78278	989.4646	-506.18362	927.70807	1203.83911	-707.80695	931.39087	1062.03979	-691.69196	933.11603	1207.03943	-628.92285	585.98492	950.01422	-675.14905	457.22253	966.703	-822.85767	334.53357	975.28888	-966.18304	170.19659	1038.44128	-1005.57037	185.77277	1095.32178	-899.05847	38.03997	1053.96143	-474.16495	606.57391	1269.3512	-417.32916	461.45398	1238.64392	-437.25391	286.26093	1254.13879	-432.46262	77.54623	1212.92163	-482.98886	38.12033	1168.15991	-292.4552	41.23826	1201.79651	-512.02203	1700.73145	1117.43457	-1973.23193	1023.40881	3101.73145	-2012.50403	1022.07239	3140.7439	NaN	NaN	NaN
35	0.34	-518.14276	1659.64185	1032.71338	-478.41208	1670.08337	1139.98572	-622.77814	1604.74854	1070.33044	-584.35345	1614.78943	1184.46985	-637.17566	1421.56775	1098.69031	-682.25208	1128.0354	1107.13782	-491.07178	1353.74133	1102.98657	-453.73251	1196.74219	1099.0437	-698.48462	1231.63232	1174.00037	-547.46558	1388.35889	942.25775	-556.70258	1209.55762	850.13214	-544.06409	1056.24158	834.91284	-440.20517	998.00751	823.93597	-308.34808	974.47717	854.70404	-340.11105	929.4931	832.12134	-256.79227	917.17462	827.29602	-558.50726	1386.65723	1251.76758	-659.43011	1204.18396	1346.98755	-680.13678	1084.59875	1357.27832	-697.59943	970.92859	1396.68237	-670.40094	828.85382	1388.51697	-709.26605	851.17236	1426.72522	-713.07031	760.75739	1428.26538	-514.21674	918.7312	991.03088	-491.87628	929.44281	1204.8429	-693.02057	932.07556	1062.15308	-677.04852	934.44971	1207.09326	-608.3399	585.23743	948.14795	-651.81671	455.98508	963.23462	-801.89417	337.55414	972.07477	-949.86322	177.28847	1034.7677	-986.40527	196.69748	1091.77026	-897.53839	38.43707	1054.97009	-459.72891	606.80457	1269.79736	-405.93365	460.37366	1239.13843	-427.87332	284.22479	1254.9187	-430.85538	77.26752	1212.18152	-482.46155	38.50147	1168.28027	-291.1983	39.81065	1200.43188	-498.36472	1701.75635	1120.09583	-1973.10901	1023.48547	3101.92114	-2012.42139	1022.15076	3140.66602	NaN	NaN	NaN
36	0.35	-505.0824	1660.71741	1035.18408	-465.17542	1670.92786	1142.57568	-609.39209	1605.40234	1072.75	-570.9566	1615.14893	1186.84229	-623.73492	1422.09253	1100.53552	-667.96411	1128.74023	1107.51819	-477.16199	1354.8866	1104.57788	-439.58658	1197.95776	1100.1145	-684.11121	1231.8877	1175.15308	-533.87921	1389.56201	944.23547	-544.34753	1211.09631	851.37982	-533.55127	1058.09204	835.70825	-430.75241	998.77338	824.21533	-299.25577	972.70496	855.27203	-331.48843	928.45184	832.05121	-248.16412	915.0412	827.79822	-544.54272	1387.52002	1253.43652	-644.12689	1204.41223	1348.59167	-663.98041	1084.6897	1359.05518	-679.90497	970.86322	1398.49597	-651.36285	829.02936	1390.07263	-689.66406	850.79358	1428.29822	-692.81213	760.47473	1430.32471	-499.59415	919.87238	992.63971	-477.54532	930.9516	1206.11279	-678.4801	932.88892	1062.45703	-662.51843	936.14984	1207.41748	-587.37842	584.56854	946.33667	-627.83795	454.58813	960.03351	-779.62317	340.25699	969.14374	-932.34406	183.84016	1030.39722	-966.20367	207.34308	1087.44336	-892.78986	41.30647	1055.05542	-446.68964	606.42072	1270.26514	-395.59146	458.63062	1239.38013	-421.15369	282.84537	1255.49597	-429.58618	77.05645	1211.70068	-482.29318	38.66387	1168.20496	-290.18246	38.98982	1199.64648	-485.2106	1702.37354	1122.73218	-1973.02319	1023.56555	3101.91504	-2012.46912	1022.11993	3140.67627	NaN	NaN	NaN
37	0.36	-491.85242	1661.8291	1037.4834	-452.21613	1671.70557	1144.56726	-596.01776	1606.16907	1074.93909	-557.63269	1615.58777	1189.14514	-610.46216	1422.61841	1102.33594	-654.49237	1129.72119	1108.02917	-463.48328	1355.98804	1106.00537	-425.56784	1199.15222	1101.02234	-669.68109	1232.15771	1176.22705	-520.53912	1390.71289	945.93396	-532.04248	1212.59485	852.48932	-523.63568	1059.67957	836.4649	-421.6738	999.09509	824.64105	-290.81876	970.50519	855.6803	-323.53531	926.97748	831.84509	-239.9884	911.76099	828.72833	-530.44073	1388.49561	1254.75708	-628.73352	1204.85437	1350.18213	-647.86823	1084.90979	1360.85486	-661.88336	970.63049	1400.14307	-631.62378	829.3078	1391.44958	-669.99847	850.71948	1430.08215	-671.56628	760.18976	1432.177	-484.94537	921.19861	994.1095	-463.58615	932.16626	1207.5437	-664.13647	933.79053	1063.00427	-648.03748	937.82452	1208.0022	-566.1828	584.00269	944.94342	-603.13586	453.22672	957.09296	-756.27271	342.91394	966.02979	-913.42639	191.01308	1026.93005	-945.37085	217.92548	1083.06726	-884.63031	46.01537	1054.11633	-435.5361	605.97876	1270.61377	-385.84161	456.88495	1239.57019	-416.34268	282.14374	1255.47021	-429.00385	76.85166	1211.37256	-482.27457	38.78032	1168.12842	-289.80927	38.40456	1199.39526	-472.28506	1703.14282	1125.51782	-1973.09851	1023.57172	3101.98291	-2012.47644	1022.03308	3140.63721	NaN	NaN	NaN
38	0.37	-478.59558	1663.07703	1039.62622	-438.82758	1672.70154	1147.2345	-582.64185	1607.20374	1077.02673	-544.29602	1616.11853	1191.15112	-597.12177	1423.34253	1104.09106	-640.71729	1130.65234	1108.68311	-449.86584	1357.10693	1107.03394	-411.69449	1200.33313	1101.7594	-655.53955	1232.7146	1177.53931	-507.60831	1391.8783	947.36475	-520.34009	1214.15259	853.5108	-514.2749	1061.33936	837.19763	-413.29837	998.96033	824.98541	-282.77969	967.64923	856.28906	-316.28003	924.96161	831.57452	-232.86339	908.32178	829.08264	-516.22302	1389.46777	1256.08044	-613.36444	1205.4364	1351.67798	-631.64545	1085.24646	1362.64136	-643.77362	970.54163	1401.88733	-611.06165	829.72681	1392.62585	-649.77325	850.43036	1431.54456	-649.55481	759.93622	1433.82813	-470.80649	922.44031	995.3988	-449.88855	933.0965	1208.81555	-649.83215	934.78479	1063.75562	-634.07294	939.45526	1208.76282	-544.86658	583.61047	943.8905	-577.76794	451.98395	954.4765	-731.85626	345.0426	962.43958	-892.05194	198.60333	1024.23486	-923.1095	228.49562	1079.42859	-874.38611	51.71596	1052.25073	-426.25562	605.65955	1271.00305	-377.05621	455.58868	1239.73328	-412.0986	281.93518	1254.58484	-428.5777	76.8694	1211.07654	-482.08365	39.03733	1168.04211	-289.28098	37.91456	1198.96497	-459.35544	1703.97229	1128.04675	-1972.98267	1023.64966	3101.91699	-2012.47693	1022.09668	3140.58765	NaN	NaN	NaN
39	0.38	-465.08698	1664.78516	1041.96094	-425.75055	1673.73303	1148.83459	-569.27173	1608.18079	1078.64172	-530.95508	1616.81238	1192.87634	-583.67395	1424.35706	1105.75476	-626.92108	1131.75903	1109.70313	-436.29236	1358.33801	1107.83191	-398.02179	1201.53369	1102.36914	-641.62769	1233.62561	1179.07495	-494.87991	1393.14026	948.45453	-508.82156	1215.56006	854.19531	-505.10379	1062.65283	838.01404	-405.37729	998.41614	825.42822	-275.38486	964.11523	856.7984	-309.62497	922.43414	831.53461	-226.36714	903.74713	829.89435	-501.96014	1390.53394	1257.18091	-597.93768	1206.09436	1353.21265	-615.40381	1085.61194	1364.43152	-625.40765	970.33661	1403.62219	-590.22766	830.24017	1393.64063	-628.86926	850.15698	1432.78735	-626.79492	759.76617	1435.17456	-456.76547	923.79755	996.36292	-436.35672	933.83698	1209.80505	-635.88629	935.64197	1064.44958	-620.3313	940.83423	1209.49036	-523.80756	583.67517	942.81531	-552.02197	451.10797	952.22455	-706.526	346.63718	958.87152	-870.33984	206.88191	1022.03198	-899.78424	238.24319	1077.05078	-860.4292	57.77045	1049.43811	-418.23273	605.10681	1271.26086	-369.68808	454.9473	1239.95605	-408.43762	281.72827	1253.14905	-428.07138	77.02564	1210.63	-481.9082	39.29218	1167.75879	-288.86795	37.44902	1198.87341	-446.32101	1704.8656	1130.26208	-1973.05994	1023.5592	3101.81226	-2012.48047	1022.09869	3140.69897	NaN	NaN	NaN
40	0.39	-451.81287	1666.37756	1043.58484	-412.4679	1674.97314	1150.53284	-555.88965	1609.44739	1080.15076	-517.61005	1617.83191	1194.42078	-569.99438	1425.67883	1107.23608	-613.04871	1132.8855	1110.9895	-422.84747	1359.67932	1108.50427	-384.4454	1202.7854	1102.80432	-627.75549	1234.83997	1180.78101	-482.20892	1394.43823	949.30493	-497.61642	1216.89233	854.698	-496.21591	1063.8042	838.9657	-397.94852	997.44745	825.88074	-268.62933	960.17889	857.21851	-303.56625	919.57843	831.34619	-220.69026	898.64874	830.54938	-487.55975	1391.74243	1258.37634	-582.51031	1206.85608	1354.81934	-599.13226	1086.00806	1366.23669	-606.81213	970.17999	1405.19055	-568.9906	830.8551	1394.57129	-607.87158	849.75256	1434.10986	-603.37018	759.72571	1436.35315	-443.27914	925.31781	996.98065	-423.03369	934.54395	1210.63	-622.28961	936.47571	1065.04822	-607.05713	942.20294	1210.09192	-502.58456	584.04126	941.71661	-526.2475	450.86472	950.34912	-680.71674	347.96417	955.7915	-848.2088	214.66467	1021.10712	-876.11877	245.78523	1076.74817	-842.27954	63.46039	1045.21985	-410.73322	604.57788	1271.38403	-363.75488	454.18481	1240.35632	-405.27695	281.74146	1252.67102	-427.68655	77.16523	1210.2406	-481.7034	39.56773	1167.29492	-288.50333	37.19537	1198.76538	-433.05127	1706.17102	1132.07715	-1972.98584	1023.88611	3101.95654	-2012.38196	1022.02527	3140.6936	NaN	NaN	NaN
